#!OML:ASF H:\GeneralSubjects\Female5\Project 1\Capture day 1\Session 1\Female5.ASF
:FULLY-SPECIFIED
:DEGREES
401
root 6.60341 16.4528 -0.890324 162.976 -84.3979 -141.041
lowerback 10.6036 0.791984 -3.7198
upperback -10.73 0.219324 0.955463
thorax -18.3742 0.559969 3.18215
lowerneck -22.4784 -4.47119 -2.59322
upperneck 25.245 -6.10934 1.53391
head 12.1915 -2.85152 -0.0427385
rclavicle -5.49143e-015 1.03368e-014
rhumerus 1.20903 -8.36924 -23.0524
rradius 109.707
rwrist -4.02611
rhand -38.2216 0.724458
rfingers 7.12502
rthumb -11.253 -28.9537
lclavicle -5.49143e-015 1.03368e-014
lhumerus 18.9571 -2.28239 31.3223
lradius 101.613
lwrist -30.8526
lhand -58.829 33.5118
lfingers 7.12502
lthumb -31.0363 -299.094
rfemur -25.5793 20.6568 22.2557
rtibia 4.48691
rfoot -12.599 -20.1311
rtoes -13.7933
lfemur -31.322 -45.0224 8.64405
ltibia 6.48262
lfoot -42.2188 -5.48828
ltoes -35.0692
402
root 6.56147 16.4453 -1.00778 159.821 -84.7473 -138.489
lowerback 10.4939 0.583663 -4.12656
upperback -10.6261 -0.154959 0.832412
thorax -18.1365 0.426116 3.36189
lowerneck -22.4059 -4.49527 -2.58892
upperneck 25.8295 -6.32457 1.93602
head 12.4297 -2.89689 0.0628116
rclavicle -1.14798e-014 -9.54166e-015
rhumerus -0.298737 -8.05243 -23.2026
rradius 109.272
rwrist -3.41072
rhand -39.0298 0.741776
rfingers 7.12502
rthumb -12.0324 -28.8923
lclavicle -1.14798e-014 -9.54166e-015
lhumerus 18.5285 -3.65829 31.9347
lradius 99.6723
lwrist -30.947
lhand -58.3209 32.858
lfingers 7.12502
lthumb -30.552 -299.656
rfemur -24.2217 19.1033 23.5516
rtibia 3.91144
rfoot -11.2882 -19.7724
rtoes -16.8913
lfemur -29.7659 -46.5575 8.82362
ltibia 5.03634
lfoot -42.772 -5.29145
ltoes -36.8078
403
root 6.51927 16.4304 -1.1219 153.659 -84.8608 -132.964
lowerback 10.3445 0.324536 -4.41969
upperback -10.4994 -0.530753 0.980511
thorax -17.8377 0.29912 3.78935
lowerneck -22.3353 -4.39095 -2.55868
upperneck 26.4374 -6.32472 2.17898
head 12.668 -2.86599 0.142407
rclavicle -2.48481e-017 1.74931e-014
rhumerus -1.49677 -7.58696 -23.5247
rradius 108.847
rwrist -2.79088
rhand -39.0595 0.528387
rfingers 7.12502
rthumb -12.061 -29.104
lclavicle -2.48481e-017 1.74931e-014
lhumerus 17.6384 -4.94394 32.7939
lradius 97.4458
lwrist -30.9218
lhand -58.041 32.3963
lfingers 7.12502
lthumb -30.285 -300.068
rfemur -22.9309 17.9246 25.0078
rtibia 3.48442
rfoot -10.585 -19.2738
rtoes -16.9712
lfemur -28.1739 -47.6503 9.15187
ltibia 3.77768
lfoot -43.2974 -4.8855
ltoes -37.5209
404
root 6.47699 16.4111 -1.22029 147.168 -84.7907 -127.115
lowerback 10.1499 0.141042 -4.37442
upperback -10.4092 -0.74818 1.06433
thorax -17.5653 0.19298 3.90822
lowerneck -21.9799 -4.41569 -2.59965
upperneck 26.985 -6.53475 2.53103
head 12.8407 -2.92719 0.245875
rclavicle -6.33626e-015 2.3059e-014
rhumerus -3.06224 -6.97916 -23.9159
rradius 108.511
rwrist -2.33738
rhand -38.9772 0.246856
rfingers 7.12502
rthumb -11.9816 -29.3902
lclavicle -6.33626e-015 2.3059e-014
lhumerus 16.6425 -6.40597 33.9546
lradius 94.9816
lwrist -30.7714
lhand -57.7626 32.1963
lfingers 7.12502
lthumb -30.0194 -300.22
rfemur -21.8771 16.2048 26.5882
rtibia 3.48542
rfoot -10.0926 -17.8181
rtoes -15.5043
lfemur -26.6046 -48.4774 9.28521
ltibia 2.94718
lfoot -43.8451 -4.57323
ltoes -36.3432
405
root 6.43346 16.3892 -1.30531 141.458 -84.5097 -122.109
lowerback 10.0384 0.0620623 -4.00099
upperback -10.3777 -0.784698 1.04415
thorax -17.4421 0.122888 3.67946
lowerneck -21.5233 -4.49007 -2.56077
upperneck 27.5265 -6.80634 2.729
head 12.9846 -3.03138 0.269198
rclavicle 4.77083e-015 -1.27222e-014
rhumerus -5.15022 -6.07076 -24.2816
rradius 108.253
rwrist -2.21272
rhand -39.8362 -0.346575
rfingers 7.12502
rthumb -12.8099 -29.9335
lclavicle 4.77083e-015 -1.27222e-014
lhumerus 15.4765 -8.00831 35.526
lradius 92.4696
lwrist -30.6568
lhand -57.2217 32.566
lfingers 7.12502
lthumb -29.5032 -299.758
rfemur -21.0422 14.1742 28.2523
rtibia 3.96365
rfoot -9.72732 -15.854
rtoes -15.2472
lfemur -24.9526 -49.1886 9.18093
ltibia 2.47053
lfoot -44.3696 -4.33881
ltoes -33.8232
406
root 6.3931 16.3662 -1.3875 136.142 -83.9154 -117.617
lowerback 10.0878 0.0246883 -3.46659
upperback -10.3398 -0.723872 1.12986
thorax -17.4272 0.0915012 3.4619
lowerneck -20.9891 -4.4473 -2.41913
upperneck 27.958 -6.88965 2.77239
head 13.051 -3.06554 0.252977
rclavicle -6.39838e-016 8.74653e-015
rhumerus -7.26471 -4.93879 -24.7195
rradius 108.122
rwrist -2.66528
rhand -40.1915 -1.06806
rfingers 7.12502
rthumb -13.1524 -30.6332
lclavicle -6.39838e-016 8.74653e-015
lhumerus 13.9976 -9.47878 37.7071
lradius 89.6712
lwrist -30.8324
lhand -56.6193 32.668
lfingers 7.12502
lthumb -28.9279 -299.556
rfemur -20.2324 12.4436 30.0811
rtibia 4.66404
rfoot -9.33635 -14.1662
rtoes -16.7804
lfemur -23.0019 -49.3447 8.86368
ltibia 2.10938
lfoot -44.0374 -4.02432
ltoes -29.9521
407
root 6.35649 16.3407 -1.46859 132.215 -83.1601 -114.654
lowerback 10.1533 0.0286112 -3.00213
upperback -10.1777 -0.591443 1.33622
thorax -17.2711 0.110828 3.40106
lowerneck -20.443 -4.33764 -2.33487
upperneck 28.2623 -6.83695 2.80444
head 13.0598 -3.04764 0.267972
rclavicle 1.47279e-014 2.46493e-014
rhumerus -9.10863 -3.8329 -25.3273
rradius 107.871
rwrist -3.15677
rhand -39.8196 -1.14598
rfingers 7.12502
rthumb -12.7938 -30.734
lclavicle 1.47279e-014 2.46493e-014
lhumerus 12.1908 -10.6233 40.4
lradius 86.6732
lwrist -31.1326
lhand -56.1532 32.2401
lfingers 7.12502
lthumb -28.4826 -299.908
rfemur -19.3332 11.2245 31.8671
rtibia 5.48744
rfoot -9.12528 -12.8133
rtoes -18.3142
lfemur -20.7267 -48.9241 8.15255
ltibia 1.93281
lfoot -42.8245 -3.83086
ltoes -25.3103
